<svg width="73" height="73" viewBox="0 0 73 73" fill="none" xmlns="http://www.w3.org/2000/svg">
<g filter="url(#filter0_dd_2_502)">
<path d="M24.4902 8.94049H48.4902V32.9405H24.4902V8.94049Z" fill="url(#paint0_linear_2_502)"/>
<path fill-rule="evenodd" clip-rule="evenodd" d="M28.1431 20.9473C28.1431 25.5611 31.8833 29.3012 36.497 29.3012C41.1108 29.3012 44.8509 25.5611 44.8509 20.9473C44.8509 16.3336 41.1108 12.5934 36.497 12.5934C31.8833 12.5934 28.1431 16.3336 28.1431 20.9473ZM34.3621 18.2555C34.0545 18.2555 33.8052 18.5048 33.8052 18.8124V23.0822C33.8052 23.3898 34.0545 23.6392 34.3621 23.6392H38.6319C38.9395 23.6392 39.1888 23.3898 39.1888 23.0822V18.8124C39.1888 18.5048 38.9395 18.2555 38.6319 18.2555H34.3621Z" fill="white"/>
</g>
<defs>
<filter id="filter0_dd_2_502" x="0.490234" y="0.940491" width="72" height="72" filterUnits="userSpaceOnUse" color-interpolation-filters="sRGB">
<feFlood flood-opacity="0" result="BackgroundImageFix"/>
<feColorMatrix in="SourceAlpha" type="matrix" values="0 0 0 0 0 0 0 0 0 0 0 0 0 0 0 0 0 0 127 0" result="hardAlpha"/>
<feOffset dy="16"/>
<feGaussianBlur stdDeviation="12"/>
<feColorMatrix type="matrix" values="0 0 0 0 0 0 0 0 0 0 0 0 0 0 0 0 0 0 0.06 0"/>
<feBlend mode="normal" in2="BackgroundImageFix" result="effect1_dropShadow_2_502"/>
<feColorMatrix in="SourceAlpha" type="matrix" values="0 0 0 0 0 0 0 0 0 0 0 0 0 0 0 0 0 0 127 0" result="hardAlpha"/>
<feOffset/>
<feGaussianBlur stdDeviation="4"/>
<feColorMatrix type="matrix" values="0 0 0 0 0 0 0 0 0 0 0 0 0 0 0 0 0 0 0.04 0"/>
<feBlend mode="normal" in2="effect1_dropShadow_2_502" result="effect2_dropShadow_2_502"/>
<feBlend mode="normal" in="SourceGraphic" in2="effect2_dropShadow_2_502" result="shape"/>
</filter>
<linearGradient id="paint0_linear_2_502" x1="36.4902" y1="8.94049" x2="36.4902" y2="32.9405" gradientUnits="userSpaceOnUse">
<stop stop-color="#2E66F8"/>
<stop offset="1" stop-color="#124ADB"/>
</linearGradient>
</defs>
</svg>
