<svg width="24" height="22" viewBox="0 0 24 22" fill="none" xmlns="http://www.w3.org/2000/svg">
<path d="M21.3338 0.877075H3.8338C1.90413 0.877075 0.333801 2.44741 0.333801 4.37708V18.3771C0.333801 20.3067 1.90413 21.8771 3.8338 21.8771H21.3338C22.6206 21.8771 23.6671 20.8306 23.6671 19.5437V3.21041C23.6671 1.92358 22.6206 0.877075 21.3338 0.877075ZM3.8338 19.5437C3.1898 19.5437 2.66713 19.0199 2.66713 18.3771V4.37708C2.66713 3.73424 3.1898 3.21041 3.8338 3.21041H21.3338V6.71041H14.3338C13.047 6.71041 12.0005 7.75691 12.0005 9.04374V13.7104C12.0005 14.9972 13.047 16.0437 14.3338 16.0437H21.335V19.5437H3.8338ZM21.3338 9.04374V13.7104H14.3338V9.04374H21.3338Z" fill="white"/>
</svg>
